<svg version="1.1" id="Layer_1" xmlns="http://www.w3.org/2000/svg" xmlns:xlink="http://www.w3.org/1999/xlink" x="0px" y="0px"
	 width="100%" viewBox="0 0 624 624" enable-background="new 0 0 624 624" xml:space="preserve">
<path fill="#000000" opacity="1.000000" stroke="none" 
	d="
M167.665604,412.690247 
	C216.219650,327.867859 264.613037,243.375580 312.905609,159.059357 
	C316.458710,160.071884 317.118927,162.293594 318.155090,164.098160 
	C352.664276,224.197617 387.153900,284.308350 421.637909,344.422241 
	C452.723633,398.612122 483.859558,452.773376 514.809265,507.040863 
	C519.039124,514.457581 524.275146,520.233093 531.671082,524.797424 
	C558.463501,541.332153 584.914429,558.420410 611.474304,575.331055 
	C612.508362,575.989441 614.051270,576.261169 614.171082,578.499939 
	C413.679199,578.499939 213.248779,578.499939 12.789123,578.499939 
	C12.669619,576.283630 14.291257,576.035706 15.288426,575.414734 
	C44.562645,557.184875 73.851044,538.977661 103.180145,520.836243 
	C107.347595,518.258545 109.845047,514.402405 112.160538,510.333221 
	C130.616150,477.899841 149.058517,445.458923 167.665604,412.690247 
M356.134277,303.318939 
	C342.431671,279.518158 328.729034,255.717361 315.026428,231.916580 
	C314.380768,232.030457 313.735138,232.144318 313.089478,232.258194 
	C254.264481,333.860138 196.611099,436.130615 138.610199,538.245483 
	C141.693085,540.546265 144.631424,539.846252 147.357864,539.845825 
	C208.996109,539.836426 270.634338,539.742798 332.272583,539.704407 
	C382.416412,539.673157 432.560272,539.704163 482.704071,539.654419 
	C484.931976,539.652222 487.881927,540.698975 489.168335,538.320435 
	C490.438446,535.972229 487.933838,534.054321 486.823059,532.127563 
	C475.263733,512.076782 463.483337,492.152588 452.027130,472.043549 
	C420.125549,416.046844 388.348816,359.979065 356.134277,303.318939 
z"/>
<path fill="#000000" opacity="1.000000" stroke="none" 
	d="
M304.393005,77.000053 
	C304.389496,88.663597 304.288239,99.828392 304.431458,110.990044 
	C304.484863,115.151535 303.416016,118.811630 301.364716,122.372070 
	C264.030884,187.172379 226.388596,251.798340 189.528046,316.867065 
	C156.688126,374.838318 123.436401,432.571442 90.485947,490.477509 
	C84.518898,500.963776 77.218887,509.552185 67.038727,516.346924 
	C47.512962,529.379395 28.970911,543.831238 10.360198,558.153381 
	C8.688067,559.440186 7.142831,561.094849 3.849076,561.545959 
	C104.607819,388.104767 204.248062,214.777115 303.392151,40.936863 
	C304.832214,52.842701 304.176208,64.685646 304.393005,77.000053 
z"/>
<path fill="#000000" opacity="1.000000" stroke="none" 
	d="
M597.529541,516.533447 
	C606.529236,531.700439 615.338318,546.556030 624.362488,561.774414 
	C621.621887,562.313232 620.444763,560.699158 619.094238,559.674561 
	C596.140625,542.260620 573.214844,524.810059 550.264038,507.392334 
	C547.030884,504.938629 544.437805,502.007294 542.387695,498.482666 
	C506.465546,436.723450 470.975769,374.718231 435.902344,312.472015 
	C416.527252,278.086273 396.645020,243.986404 377.006683,209.748886 
	C360.352570,180.714005 343.868774,151.579697 326.967285,122.689629 
	C323.057159,116.005974 322.835602,109.002342 323.152100,101.955559 
	C323.990082,83.298668 323.360107,64.647079 323.610565,45.996468 
	C323.636292,44.082855 323.074463,42.050003 324.270447,40.221550 
	C325.777130,40.350578 326.152161,41.605198 326.667114,42.546707 
	C359.993469,103.481430 395.229340,163.331192 429.572083,223.688171 
	C467.949951,291.136932 506.264771,358.621918 544.793640,425.984344 
	C562.074585,456.197479 579.809753,486.150787 597.529541,516.533447 
z"/>
<path fill="#000000" opacity="1.000000" stroke="none" 
	d="
M372.000000,447.151917 
	C322.602661,447.152435 273.705322,447.152435 224.807968,447.152435 
	C224.487518,446.665741 224.167068,446.179016 223.846634,445.692322 
	C253.595108,393.420685 283.343597,341.149078 313.951843,287.366730 
	C345.123230,340.423920 373.339600,393.483368 403.516022,445.425385 
	C403.336304,446.000732 403.156586,446.576050 402.976837,447.151398 
	C392.817902,447.151398 382.658936,447.151398 372.000000,447.151917 
M309.454163,368.942169 
	C302.306366,382.576324 293.567169,395.359375 286.681976,410.403625 
	C305.097931,410.665253 322.509979,410.815674 339.914734,410.393341 
	C340.146393,409.795746 340.378052,409.198181 340.609680,408.600586 
	C332.054626,393.180359 323.499573,377.760132 314.867615,362.201324 
	C311.884399,364.146301 311.140564,366.451294 309.454163,368.942169 
z"/>
<path fill="#000000" opacity="1.000000" stroke="none" 
	d="
M210.999969,511.318970 
	C203.044205,511.319153 195.588455,511.319153 188.154480,511.319153 
	C188.003967,510.223846 187.719925,509.628723 187.904358,509.284851 
	C193.488831,498.871857 199.135559,488.492249 204.731339,478.085266 
	C206.099609,475.540558 208.408325,475.613586 210.778931,475.616089 
	C225.938416,475.632080 241.097900,475.627747 256.257385,475.628662 
	C309.565521,475.631805 362.873688,475.668579 416.181610,475.563904 
	C419.936340,475.556549 422.397980,476.529236 424.280609,479.913910 
	C429.379791,489.081329 434.758484,498.093170 440.007080,507.177795 
	C440.572968,508.157257 441.430054,509.080170 440.731476,511.318787 
	C364.510773,511.318787 288.005371,511.318787 210.999969,511.318970 
z"/>
</svg>